HIERARCHY
	ROOT pelvis
	{
		OFFSET 0 0 0 
		CHANNELS 6 Xposition Yposition Zposition Zrotation Xrotation Yrotation
		JOINT lfemur_phantom
		{
			OFFSET 0 0.0899607 0 
			CHANNELS 3 Zrotation Xrotation Yrotation
			JOINT lfemur
			{
				OFFSET 0 0 -0.426035 
				CHANNELS 3 Zrotation Xrotation Yrotation
				JOINT ltibia
				{
					OFFSET 0 0 -0.409933 
					CHANNELS 3 Zrotation Xrotation Yrotation
					JOINT lfoot
					{
						OFFSET 0.105631 0 0.00135511 
						CHANNELS 3 Zrotation Xrotation Yrotation
						End Site
						{
							OFFSET 0.0352103 0 0.000451703
						}
					}
				}
			}
		}
		JOINT rfemur_phantom
		{
			OFFSET 0 -0.0899607 0 
			CHANNELS 3 Zrotation Xrotation Yrotation
			JOINT rfemur
			{
				OFFSET 0 0 -0.430137 
				CHANNELS 3 Zrotation Xrotation Yrotation
				JOINT rtibia
				{
					OFFSET 0 0 -0.390377 
					CHANNELS 3 Zrotation Xrotation Yrotation
					JOINT rfoot
					{
						OFFSET 0.106801 0 -0.00121178 
						CHANNELS 3 Zrotation Xrotation Yrotation
						End Site
						{
							OFFSET 0.0356003 0 -0.000403927
						}
					}
				}
			}
		}
		JOINT lowerback_phantom
		{
			OFFSET -0.05 0 0.107967 
			CHANNELS 3 Zrotation Xrotation Yrotation
			JOINT lowerback
			{
				OFFSET 0.0167886 0 0.161801 
				CHANNELS 3 Zrotation Xrotation Yrotation
				JOINT upperback
				{
					OFFSET 0 0 0 
					CHANNELS 3 Zrotation Xrotation Yrotation
					JOINT lclavicle_phantom
					{
						OFFSET 0 0 0.199349 
						CHANNELS 3 Zrotation Xrotation Yrotation
						JOINT lclavicle
						{
							OFFSET 0 0.164108 -0.0174105 
							CHANNELS 3 Zrotation Xrotation Yrotation
							JOINT lhumerus
							{
								OFFSET 0 0 -0.275026 
								CHANNELS 3 Zrotation Xrotation Yrotation
								JOINT lradius
								{
									OFFSET 0 0 -0.248775 
									CHANNELS 3 Zrotation Xrotation Yrotation
									End Site
									{
										OFFSET 0 0 -0.082925
									}
								}
							}
						}
					}
					JOINT rclavicle_phantom
					{
						OFFSET 0 0 0.199349 
						CHANNELS 3 Zrotation Xrotation Yrotation
						JOINT rclavicle
						{
							OFFSET 0 -0.165322 -0.0298984 
							CHANNELS 3 Zrotation Xrotation Yrotation
							JOINT rhumerus
							{
								OFFSET 0 0 -0.273337 
								CHANNELS 3 Zrotation Xrotation Yrotation
								JOINT rradius
								{
									OFFSET 0 0 -0.254845 
									CHANNELS 3 Zrotation Xrotation Yrotation
									End Site
									{
										OFFSET 0 0 -0.0849483
									}
								}
							}
						}
					}
					JOINT LowerNeck_phantom
					{
						OFFSET 0 0 0.199349 
						CHANNELS 3 Zrotation Xrotation Yrotation
						JOINT LowerNeck
						{
							OFFSET -0.0127292 -0.000602123 0.105365 
							CHANNELS 3 Zrotation Xrotation Yrotation
							End Site
							{
								OFFSET -0.00424307 -0.000200708 0.0351217
							}
						}
					}
				}
			}
		}
	}
MOTION
Frames:	8
Frame Time:	0.0166667
-0.100245 0.892089 1.66533e-016 85.7178 -58.6167 83.3606 18.7257 4.18359 -5.65175 29.8398 3.77979 6.55572 -3.13263 -14.0478 32.2938 -3.93871e-006 2.26116e-006 8.85508 -7.67924 -9.44346 -4.02288 -26.0713 -8.0606 15.9917 5.7414 9.44297 13.4991 -3.46618e-007 -1.56806e-007 26.7177 2.23731 -0.406569 6.2283 5.66691 2.9849 2.62085 -0 0 -0 -9.57001 -10.7624 -1.80328 40.6496 31.7408 -28.7809 -1.64991 -1.97119 -129.943 2.8656e-007 4.75692 -17.0076 2.83577 -0.581193 0.0287872 18.9456 -36.4753 -33.9541 7.74593 12.5875 -121.97 1.07297e-006 -6.02153 -7.78464 -2.69348 -0.243904 41.5136 23.8262 -28.8164 -48.0018 
-0.0995418 0.89204 0.002213 86.1132 -58.571 83.7671 18.7281 4.46919 -5.94428 29.7827 3.83672 6.66869 -3.10753 -14.0361 32.3827 -4.28916e-006 -1.81192e-006 8.79788 -7.83465 -9.10264 -4.07239 -26.0215 -8.03355 15.9745 5.76279 9.47811 13.4975 1.67865e-007 1.28543e-007 26.6585 2.15768 -0.314691 6.22882 5.69855 3.06299 2.60844 -0 0 -0 -9.79583 -10.7978 -1.85264 40.8144 31.503 -28.2409 -1.64202 -1.95857 -129.989 -6.4839e-006 4.86482 -17.1032 2.83158 -0.728244 0.0360181 19.7821 -36.8034 -33.7512 7.5666 12.511 -121.517 -9.69041e-006 -5.59469 -7.68623 -2.8004 -0.479475 41.6398 24.1414 -28.8917 -48.701 
-0.0988081 0.892047 0.004342 86.5038 -58.5788 84.1505 18.6326 4.77302 -6.1526 29.8824 3.86864 6.69679 -3.07826 -14.0391 32.5005 1.08385e-005 -5.03136e-006 8.73848 -7.85679 -8.76095 -4.11868 -26.0329 -8.04241 15.9834 5.78662 9.53325 13.5381 1.57196e-007 -9.51719e-008 26.5866 2.09494 -0.20686 6.25344 5.73939 3.12382 2.58062 -0 0 -0 -10.0189 -10.8118 -1.89807 40.9162 31.2022 -27.6446 -1.58163 -1.88384 -130.028 -6.33196e-006 5.03032 -17.1887 2.86462 -0.806508 0.0403553 20.5522 -37.1493 -33.5887 7.32494 12.2982 -121.111 1.17191e-005 -5.28099 -7.56295 -2.89476 -0.597436 41.7383 24.4594 -29.0516 -49.3994 
-0.0980605 0.892074 0.006359 86.852 -58.618 84.4834 18.4243 5.06723 -6.27904 30.1325 3.8816 6.6522 -3.04598 -14.0452 32.6328 -1.09755e-005 -2.07231e-006 8.67814 -7.84052 -8.4451 -4.14593 -26.0691 -8.05588 15.9843 5.82838 9.61206 13.5615 1.54072e-008 1.90368e-007 26.5614 2.05062 -0.1184 6.2814 5.77173 3.18824 2.56028 -0 0 -0 -10.2269 -10.8195 -1.93967 41.0085 30.8707 -27.0311 -1.5103 -1.79704 -130.056 2.03437e-006 5.21392 -17.2855 2.90913 -0.872771 0.0443507 21.2775 -37.4633 -33.4508 7.06807 12.0317 -120.745 -3.21436e-006 -4.92756 -7.40305 -2.94022 -0.728957 41.8853 24.7268 -29.1851 -50.2565 
-0.0972708 0.892137 0.008255 87.1871 -58.6917 84.8013 18.2871 5.35542 -6.37451 30.3689 3.87982 6.587 -3.01942 -14.0657 32.7545 2.89486e-006 -6.00503e-006 8.61091 -7.7532 -8.13279 -4.13109 -26.1319 -8.04894 15.9294 5.85163 9.65809 13.5799 -1.54856e-007 -1.59337e-007 26.5735 2.01796 -0.0309354 6.29981 5.80231 3.25974 2.53992 -0 0 -0 -10.4279 -10.8239 -1.97939 41.0858 30.4963 -26.3709 -1.41358 -1.68108 -130.069 3.08191e-006 5.44027 -17.3959 2.95579 -0.932065 0.0481227 21.9589 -37.7316 -33.3352 6.82231 11.7487 -120.437 -6.52931e-006 -4.61929 -7.25155 -2.96029 -0.863429 42.0444 24.9854 -29.2972 -51.191 
-0.0964646 0.892218 0.009985 87.4846 -58.789 85.0872 18.1667 5.62166 -6.4289 30.6255 3.85866 6.48524 -2.99187 -14.0863 32.8801 1.65123e-005 -7.07093e-006 8.51962 -7.68305 -7.84662 -4.09778 -26.1583 -8.01131 15.8416 5.86655 9.68189 13.5767 5.50842e-008 1.15589e-007 26.6186 1.98456 0.0515465 6.2957 5.83359 3.33732 2.51733 -0 0 -0 -10.6266 -10.8429 -2.02143 41.1822 30.0979 -25.6694 -1.31455 -1.56354 -130.064 4.74834e-007 5.62718 -17.5259 2.99332 -1.00392 0.052494 22.6148 -37.9422 -33.2328 6.65391 11.5675 -120.189 4.2098e-006 -4.34949 -7.13927 -2.98217 -1.03557 42.1882 25.2916 -29.367 -52.1186 
-0.0956449 0.892303 0.011537 87.7418 -58.9066 85.334 18.0936 5.86396 -6.45234 30.8591 3.82423 6.36907 -2.9668 -14.1093 32.9974 1.58218e-005 -6.48444e-006 8.42346 -7.64603 -7.59135 -4.0537 -26.1355 -7.949 15.7403 5.87418 9.68776 13.5586 -4.78032e-007 -2.10068e-007 26.6781 1.94812 0.129323 6.27113 5.85505 3.40513 2.49258 -0 0 -0 -10.811 -10.877 -2.06373 41.2942 29.7366 -24.9469 -1.26666 -1.50765 -130.043 5.26534e-006 5.73624 -17.6736 3.02531 -1.07199 0.0566513 23.2328 -38.0989 -33.1476 6.57815 11.5164 -120.011 -1.06633e-005 -4.09621 -7.07876 -3.01853 -1.19493 42.2851 25.6659 -29.427 -52.9307 
-0.0948085 0.892384 0.012944 87.9885 -59.0509 85.5699 18.1816 6.09203 -6.48814 30.9552 3.7902 6.28915 -2.9527 -14.1369 33.0751 -1.86198e-005 8.07061e-006 8.35063 -7.58967 -7.34807 -4.00382 -26.0996 -7.87892 15.6327 5.86896 9.67703 13.5535 -5.01372e-007 -6.78725e-007 26.7215 1.90794 0.207437 6.22722 5.87265 3.46109 2.47109 -0 0 -0 -10.967 -10.9201 -2.10239 41.404 29.4494 -24.235 -1.30931 -1.5604 -130.008 4.96195e-006 5.82419 -17.8117 3.04388 -1.12137 0.0596255 23.7905 -38.211 -33.0946 6.53173 11.4827 -119.906 3.54049e-006 -3.87024 -7.05231 -3.07235 -1.29518 42.3294 26.0796 -29.5036 -53.6189 
